<svg width="77" height="94" viewBox="0 0 77 94" fill="none" xmlns="http://www.w3.org/2000/svg">
<g filter="url(#filter0_d_2_1397)">
<path d="M48.0792 1.28978C47.3891 2.02052 45.7537 3.56798 44.4485 4.75723C40.0976 8.68319 39.2124 10.0874 39.0923 13.2969C39.0023 15.9047 39.6325 17.882 41.2678 20.1315C41.7029 20.7333 42.063 21.1918 42.063 21.1345C42.063 21.0915 41.7929 20.5327 41.4628 19.9023C40.2026 17.4951 39.8275 14.5721 40.5176 12.4945C41.1628 10.5459 42.108 9.37096 45.3037 6.54827C45.9788 5.96081 46.804 5.1441 47.149 4.75723L47.7942 4.04081L47.7042 7.04976C47.6591 9.0414 47.5541 10.4169 47.3891 11.1333C46.834 13.5548 45.7537 15.4748 43.7883 17.5811C42.363 19.1142 41.958 19.9882 42.348 20.7047C42.408 20.8336 42.5131 21.3781 42.5731 21.8939L42.6631 22.8396L41.8079 23.3841C38.9123 25.2181 36.8719 27.8688 36.0467 30.8778C35.8217 31.6802 35.7316 32.4539 35.7316 33.7005C35.7166 36.3512 36.2267 38.5578 37.517 41.3375L38.1922 42.799L37.9521 43.9452C37.7121 45.1058 37.637 48.5589 37.8471 49.4616C37.9221 49.8198 38.0121 49.8915 38.3872 49.8915H38.8373L38.9423 48.0431C39.3324 41.4521 41.6129 37.6264 46.969 34.5745C51.0949 32.2246 52.3101 30.9064 55.0557 25.8056C57.2162 21.7506 57.9063 20.676 59.5717 18.6271L60.5168 17.4665L59.1816 18.0109C57.0211 18.8993 53.9155 19.7877 50.1647 20.59C46.5639 21.3494 44.9286 21.7936 43.6833 22.3954C43.2932 22.5817 42.9332 22.7393 42.8881 22.7393C42.8431 22.7393 42.8281 22.1662 42.8731 21.4497C42.9482 19.9166 42.9632 19.8879 45.2887 17.5668C46.5489 16.3202 47.074 15.6611 47.5091 14.8444C48.4693 13.0247 48.5443 12.4945 48.4393 8.98409C48.3343 5.68857 48.5143 3.53933 49.1145 1.14649C49.2645 0.530375 49.3845 0.0145529 49.3695 0.000224536C49.3545 -0.0141038 48.7694 0.573359 48.0792 1.28978ZM54.9957 23.7566C51.9801 29.0581 49.8796 31.3076 45.0636 34.4169C44.1184 35.033 43.0082 35.8067 42.6031 36.122C41.1178 37.2969 39.4224 39.6181 38.7773 41.3518C38.6273 41.7673 38.4622 42.0539 38.4172 41.9822C38.1772 41.624 37.532 38.7011 37.382 37.3399C36.8869 32.8264 38.6423 28.8718 42.333 26.2211C44.4485 24.6879 46.3689 23.9859 50.2397 23.3124C51.89 23.0259 54.5156 22.2951 55.6408 21.8223C55.8959 21.722 56.1059 21.6503 56.1359 21.6647C56.1509 21.679 55.6408 22.6247 54.9957 23.7566Z" fill="#151618"/>
<path d="M48.0792 1.28978C47.3891 2.02052 45.7537 3.56798 44.4485 4.75723C40.0976 8.68319 39.2124 10.0874 39.0923 13.2969C39.0023 15.9047 39.6325 17.882 41.2678 20.1315C41.7029 20.7333 42.063 21.1918 42.063 21.1345C42.063 21.0915 41.7929 20.5327 41.4628 19.9023C40.2026 17.4951 39.8275 14.5721 40.5176 12.4945C41.1628 10.5459 42.108 9.37096 45.3037 6.54827C45.9788 5.96081 46.804 5.1441 47.149 4.75723L47.7942 4.04081L47.7042 7.04976C47.6591 9.0414 47.5541 10.4169 47.3891 11.1333C46.834 13.5548 45.7537 15.4748 43.7883 17.5811C42.363 19.1142 41.958 19.9882 42.348 20.7047C42.408 20.8336 42.5131 21.3781 42.5731 21.8939L42.6631 22.8396L41.8079 23.3841C38.9123 25.2181 36.8719 27.8688 36.0467 30.8778C35.8217 31.6802 35.7316 32.4539 35.7316 33.7005C35.7166 36.3512 36.2267 38.5578 37.517 41.3375L38.1922 42.799L37.9521 43.9452C37.7121 45.1058 37.637 48.5589 37.8471 49.4616C37.9221 49.8198 38.0121 49.8915 38.3872 49.8915H38.8373L38.9423 48.0431C39.3324 41.4521 41.6129 37.6264 46.969 34.5745C51.0949 32.2246 52.3101 30.9064 55.0557 25.8056C57.2162 21.7506 57.9063 20.676 59.5717 18.6271L60.5168 17.4665L59.1816 18.0109C57.0211 18.8993 53.9155 19.7877 50.1647 20.59C46.5639 21.3494 44.9286 21.7936 43.6833 22.3954C43.2932 22.5817 42.9332 22.7393 42.8881 22.7393C42.8431 22.7393 42.8281 22.1662 42.8731 21.4497C42.9482 19.9166 42.9632 19.8879 45.2887 17.5668C46.5489 16.3202 47.074 15.6611 47.5091 14.8444C48.4693 13.0247 48.5443 12.4945 48.4393 8.98409C48.3343 5.68857 48.5143 3.53933 49.1145 1.14649C49.2645 0.530375 49.3845 0.0145529 49.3695 0.000224536C49.3545 -0.0141038 48.7694 0.573359 48.0792 1.28978ZM54.9957 23.7566C51.9801 29.0581 49.8796 31.3076 45.0636 34.4169C44.1184 35.033 43.0082 35.8067 42.6031 36.122C41.1178 37.2969 39.4224 39.6181 38.7773 41.3518C38.6273 41.7673 38.4622 42.0539 38.4172 41.9822C38.1772 41.624 37.532 38.7011 37.382 37.3399C36.8869 32.8264 38.6423 28.8718 42.333 26.2211C44.4485 24.6879 46.3689 23.9859 50.2397 23.3124C51.89 23.0259 54.5156 22.2951 55.6408 21.8223C55.8959 21.722 56.1059 21.6503 56.1359 21.6647C56.1509 21.679 55.6408 22.6247 54.9957 23.7566Z" fill="black" fill-opacity="0.2"/>
<path d="M21.681 4.86836C22.5758 8.09669 22.8442 12.3294 22.4117 16.2895C21.8749 21.2252 22.3223 22.7175 25.5136 26.778C26.3786 27.8684 27.3479 29.2889 27.6909 29.9202C28.6602 31.7998 29.1822 34.4686 29.1971 37.6826V39.0169L28.8392 38.8735C28.0041 38.5721 26.4979 38.443 22.71 38.3713C20.5029 38.3282 18.2212 38.2278 17.6396 38.1704C17.0729 38.0987 16.5808 38.07 16.5659 38.0843C16.5361 38.0987 16.8343 38.3282 17.237 38.6008C18.9221 39.763 20.6222 41.2696 22.5907 43.3501C23.7539 44.5697 25.1408 45.9184 25.6926 46.3345C28.0488 48.128 30.748 49.1754 34.0139 49.5485C35.3561 49.7063 34.8192 49.2185 32.5525 48.2715C28.9436 46.7506 27.1391 45.5166 24.3653 42.6901C23.3214 41.6283 22.0538 40.4948 21.5617 40.1648L20.6669 39.5909H22.4267C27.0496 39.5909 29.6594 40.4518 31.8814 42.7044C32.985 43.8092 33.7753 45.1866 34.178 46.6645C34.2973 47.138 34.4315 47.5541 34.4762 47.5971C34.6254 47.7263 34.5806 45.904 34.4166 44.8997C34.0736 42.8192 32.3437 40.5235 30.3603 39.5191L29.4953 39.0887V36.7212C29.4953 32.015 29.0629 30.3937 26.7961 26.7206C23.7986 21.8422 23.3065 19.9196 23.396 13.1616C23.4258 11.0668 23.4706 9.34498 23.4855 9.35933C23.4855 9.37368 23.7986 9.77543 24.1565 10.2489C24.5294 10.7224 25.8566 12.1429 27.1242 13.4055C30.1962 16.4617 31.3744 18.2265 32.1051 20.8809C32.9253 23.7936 32.2542 27.8684 30.3156 31.7998C29.9576 32.5316 29.6892 33.1342 29.7041 33.1342C29.7339 33.1342 29.9875 32.7898 30.2857 32.3594C32.627 28.9732 33.8052 25.1566 33.6262 21.5839C33.5218 19.6326 33.1192 18.1117 32.2691 16.4186C31.4042 14.6681 30.405 13.4342 27.5119 10.5502C25.2601 8.29757 23.7092 6.63318 22.0837 4.79662L21.4573 4.07922L21.681 4.86836Z" fill="#151618"/>
<path d="M21.681 4.86836C22.5758 8.09669 22.8442 12.3294 22.4117 16.2895C21.8749 21.2252 22.3223 22.7175 25.5136 26.778C26.3786 27.8684 27.3479 29.2889 27.6909 29.9202C28.6602 31.7998 29.1822 34.4686 29.1971 37.6826V39.0169L28.8392 38.8735C28.0041 38.5721 26.4979 38.443 22.71 38.3713C20.5029 38.3282 18.2212 38.2278 17.6396 38.1704C17.0729 38.0987 16.5808 38.07 16.5659 38.0843C16.5361 38.0987 16.8343 38.3282 17.237 38.6008C18.9221 39.763 20.6222 41.2696 22.5907 43.3501C23.7539 44.5697 25.1408 45.9184 25.6926 46.3345C28.0488 48.128 30.748 49.1754 34.0139 49.5485C35.3561 49.7063 34.8192 49.2185 32.5525 48.2715C28.9436 46.7506 27.1391 45.5166 24.3653 42.6901C23.3214 41.6283 22.0538 40.4948 21.5617 40.1648L20.6669 39.5909H22.4267C27.0496 39.5909 29.6594 40.4518 31.8814 42.7044C32.985 43.8092 33.7753 45.1866 34.178 46.6645C34.2973 47.138 34.4315 47.5541 34.4762 47.5971C34.6254 47.7263 34.5806 45.904 34.4166 44.8997C34.0736 42.8192 32.3437 40.5235 30.3603 39.5191L29.4953 39.0887V36.7212C29.4953 32.015 29.0629 30.3937 26.7961 26.7206C23.7986 21.8422 23.3065 19.9196 23.396 13.1616C23.4258 11.0668 23.4706 9.34498 23.4855 9.35933C23.4855 9.37368 23.7986 9.77543 24.1565 10.2489C24.5294 10.7224 25.8566 12.1429 27.1242 13.4055C30.1962 16.4617 31.3744 18.2265 32.1051 20.8809C32.9253 23.7936 32.2542 27.8684 30.3156 31.7998C29.9576 32.5316 29.6892 33.1342 29.7041 33.1342C29.7339 33.1342 29.9875 32.7898 30.2857 32.3594C32.627 28.9732 33.8052 25.1566 33.6262 21.5839C33.5218 19.6326 33.1192 18.1117 32.2691 16.4186C31.4042 14.6681 30.405 13.4342 27.5119 10.5502C25.2601 8.29757 23.7092 6.63318 22.0837 4.79662L21.4573 4.07922L21.681 4.86836Z" fill="black" fill-opacity="0.2"/>
<path d="M48.5727 40.0357C45.1472 40.7346 42.8185 43.6443 42.8034 47.2101C42.8034 47.9233 42.7734 47.9803 42.3377 48.123C41.5565 48.3797 42.1274 48.5081 44.5462 48.6079C48.0017 48.7505 50.1201 48.3654 51.923 47.2529C52.4188 46.9534 53.6658 45.9977 54.7024 45.1277C56.8058 43.3875 57.8875 42.6459 59.6604 41.7473L60.8473 41.1482L59.4049 41.0484C58.6237 41.0056 57.2265 40.8201 56.295 40.6633C55.3635 40.5064 53.8911 40.2496 53.0198 40.107C51.1868 39.7932 49.8647 39.7647 48.5727 40.0357ZM53.5306 41.8186C54.2667 41.9897 55.4086 42.1752 56.0396 42.218L57.2114 42.3178L55.5738 43.573C53.0799 45.4843 51.4272 46.3543 49.3088 46.8678C48.2271 47.1388 43.3894 47.8377 43.2842 47.7379C43.149 47.6095 43.5847 46.283 44.1105 45.2418C45.027 43.4303 46.7548 42.1324 48.9332 41.6046C50.045 41.3336 51.7878 41.4192 53.5306 41.8186Z" fill="#151618"/>
<path d="M48.5727 40.0357C45.1472 40.7346 42.8185 43.6443 42.8034 47.2101C42.8034 47.9233 42.7734 47.9803 42.3377 48.123C41.5565 48.3797 42.1274 48.5081 44.5462 48.6079C48.0017 48.7505 50.1201 48.3654 51.923 47.2529C52.4188 46.9534 53.6658 45.9977 54.7024 45.1277C56.8058 43.3875 57.8875 42.6459 59.6604 41.7473L60.8473 41.1482L59.4049 41.0484C58.6237 41.0056 57.2265 40.8201 56.295 40.6633C55.3635 40.5064 53.8911 40.2496 53.0198 40.107C51.1868 39.7932 49.8647 39.7647 48.5727 40.0357ZM53.5306 41.8186C54.2667 41.9897 55.4086 42.1752 56.0396 42.218L57.2114 42.3178L55.5738 43.573C53.0799 45.4843 51.4272 46.3543 49.3088 46.8678C48.2271 47.1388 43.3894 47.8377 43.2842 47.7379C43.149 47.6095 43.5847 46.283 44.1105 45.2418C45.027 43.4303 46.7548 42.1324 48.9332 41.6046C50.045 41.3336 51.7878 41.4192 53.5306 41.8186Z" fill="black" fill-opacity="0.2"/>
<path d="M15.0565 55.6405C14.876 63.3894 15.2971 66.0108 17.3276 69.9141C18.3955 71.9593 20.1251 74.3502 21.3584 75.4737C21.6592 75.7473 21.8999 76.0066 21.8999 76.0498C21.8999 76.1074 18.1548 76.1218 13.5975 76.093C9.02522 76.0642 5.12973 76.093 4.9342 76.1362C4.75371 76.1794 4.51307 76.3811 4.42282 76.5683C4.28746 76.8708 4.3025 76.9716 4.52811 77.2165C4.79884 77.5045 4.96428 77.5045 38.4745 77.5045C61.4113 77.5045 72.2405 77.4613 72.4511 77.3605C72.8421 77.1588 72.8421 76.4099 72.4511 76.2082C72.2555 76.1218 69.1572 76.0642 63.4117 76.0642H54.6732L55.5906 75.0128C58.2077 72.0601 59.9073 68.8194 61.0203 64.6857C61.3361 63.5479 61.3662 63.0582 61.4113 57.2969L61.4865 51.1467H38.3241H15.1617L15.0565 55.6405Z" fill="#151618"/>
<path d="M15.0565 55.6405C14.876 63.3894 15.2971 66.0108 17.3276 69.9141C18.3955 71.9593 20.1251 74.3502 21.3584 75.4737C21.6592 75.7473 21.8999 76.0066 21.8999 76.0498C21.8999 76.1074 18.1548 76.1218 13.5975 76.093C9.02522 76.0642 5.12973 76.093 4.9342 76.1362C4.75371 76.1794 4.51307 76.3811 4.42282 76.5683C4.28746 76.8708 4.3025 76.9716 4.52811 77.2165C4.79884 77.5045 4.96428 77.5045 38.4745 77.5045C61.4113 77.5045 72.2405 77.4613 72.4511 77.3605C72.8421 77.1588 72.8421 76.4099 72.4511 76.2082C72.2555 76.1218 69.1572 76.0642 63.4117 76.0642H54.6732L55.5906 75.0128C58.2077 72.0601 59.9073 68.8194 61.0203 64.6857C61.3361 63.5479 61.3662 63.0582 61.4113 57.2969L61.4865 51.1467H38.3241H15.1617L15.0565 55.6405Z" fill="black" fill-opacity="0.2"/>
<path d="M8.81415 79.4547C13.8963 81.7458 21.7301 83.6127 29.0377 84.2774C30.3308 84.4047 30.9172 84.5037 30.6916 84.5603C30.3759 84.6451 30.3608 84.6593 30.6164 84.6734C30.7818 84.6876 31.8043 84.7583 32.8719 84.8431C38.375 85.225 50.1633 84.9987 49.8325 84.5037C49.7874 84.433 49.8025 84.4047 49.8927 84.4471C49.9679 84.4896 50.2385 84.4754 50.4791 84.4047C50.9001 84.2916 50.9001 84.2916 50.3137 84.2633C49.9528 84.2491 50.7197 84.0794 52.1932 83.839C56.7792 83.1036 60.5532 82.2125 63.6507 81.1377C65.4249 80.5154 68.8682 79.1011 69.1088 78.8748C69.1839 78.8041 57.4408 78.7475 38.2848 78.7617L7.31055 78.7758L8.81415 79.4547Z" fill="#151618"/>
<path d="M8.81415 79.4547C13.8963 81.7458 21.7301 83.6127 29.0377 84.2774C30.3308 84.4047 30.9172 84.5037 30.6916 84.5603C30.3759 84.6451 30.3608 84.6593 30.6164 84.6734C30.7818 84.6876 31.8043 84.7583 32.8719 84.8431C38.375 85.225 50.1633 84.9987 49.8325 84.5037C49.7874 84.433 49.8025 84.4047 49.8927 84.4471C49.9679 84.4896 50.2385 84.4754 50.4791 84.4047C50.9001 84.2916 50.9001 84.2916 50.3137 84.2633C49.9528 84.2491 50.7197 84.0794 52.1932 83.839C56.7792 83.1036 60.5532 82.2125 63.6507 81.1377C65.4249 80.5154 68.8682 79.1011 69.1088 78.8748C69.1839 78.8041 57.4408 78.7475 38.2848 78.7617L7.31055 78.7758L8.81415 79.4547Z" fill="black" fill-opacity="0.2"/>
</g>
<defs>
<filter id="filter0_d_2_1397" x="0.336304" y="0" width="76.4081" height="93.0352" filterUnits="userSpaceOnUse" color-interpolation-filters="sRGB">
<feFlood flood-opacity="0" result="BackgroundImageFix"/>
<feColorMatrix in="SourceAlpha" type="matrix" values="0 0 0 0 0 0 0 0 0 0 0 0 0 0 0 0 0 0 127 0" result="hardAlpha"/>
<feOffset dy="4"/>
<feGaussianBlur stdDeviation="2"/>
<feComposite in2="hardAlpha" operator="out"/>
<feColorMatrix type="matrix" values="0 0 0 0 0 0 0 0 0 0 0 0 0 0 0 0 0 0 0.25 0"/>
<feBlend mode="normal" in2="BackgroundImageFix" result="effect1_dropShadow_2_1397"/>
<feBlend mode="normal" in="SourceGraphic" in2="effect1_dropShadow_2_1397" result="shape"/>
</filter>
</defs>
</svg>
