<svg width="18" height="20" viewBox="0 0 18 20" fill="none" xmlns="http://www.w3.org/2000/svg">
<g clip-path="url(#clip0_54_395)" filter="url(#filter0_d_54_395)">
<path d="M12.4829 0.9341C11.9386 0.303027 10.9547 0.0324707 9.69601 0.0324707H6.04288C5.91834 0.0324754 5.79789 0.077671 5.70318 0.159932C5.60847 0.242193 5.54572 0.356123 5.5262 0.481239L4.00511 10.2945C3.97487 10.488 4.12218 10.6632 4.31499 10.6632H6.5703L7.13671 7.00876L7.11913 7.1232C7.15948 6.86488 7.37667 6.67435 7.63386 6.67435H8.70558C10.811 6.67435 12.4595 5.80447 12.9411 3.28809C12.9554 3.21366 12.9678 3.14123 12.9785 3.07046C12.9177 3.03772 12.9177 3.03772 12.9785 3.07046C13.1219 2.14038 12.9775 1.50728 12.4829 0.9341Z" fill="#27346A"/>
<path d="M7.99968 2.73541C8.06133 2.70555 8.12877 2.69007 8.19706 2.69011H11.061C11.4002 2.69011 11.7165 2.71256 12.0056 2.75989C12.0865 2.77301 12.1669 2.78867 12.2469 2.80685C12.3602 2.83229 12.4721 2.86341 12.5824 2.90011C12.7245 2.94839 12.8569 3.00462 12.9785 3.07046C13.1219 2.14002 12.9775 1.50728 12.4829 0.9341C11.9383 0.303027 10.9547 0.0324707 9.69601 0.0324707H6.04257C5.78534 0.0324707 5.56651 0.222961 5.5262 0.481239L4.00511 10.2941C3.97487 10.488 4.12218 10.663 4.31468 10.663H6.5703L7.74542 3.0827C7.75697 3.00819 7.78615 2.93765 7.83044 2.87716C7.87473 2.81666 7.93281 2.76802 7.99968 2.73541Z" fill="#27346A"/>
<path d="M12.9413 3.28794C12.4597 5.80397 10.8112 6.67421 8.70577 6.67421H7.63374C7.37655 6.67421 7.15932 6.86474 7.11936 7.12305L6.41471 11.667C6.38838 11.8363 6.51713 11.9898 6.68557 11.9898H8.58674C8.69565 11.9897 8.80097 11.9502 8.88377 11.8782C8.96656 11.8063 9.0214 11.7066 9.03842 11.5972L9.05694 11.4986L9.41526 9.1886L9.43834 9.06093C9.45536 8.95152 9.5102 8.85187 9.59299 8.77991C9.67577 8.70795 9.78109 8.66839 9.88999 8.66835H10.1745C12.0162 8.66835 13.4583 7.90727 13.8797 5.7061C14.0556 4.78623 13.9646 4.01823 13.4992 3.47879C13.3581 3.3154 13.1828 3.18046 12.9787 3.07031C12.9676 3.14144 12.9556 3.21352 12.9413 3.28794Z" fill="#2790C3"/>
<path d="M12.4747 2.86593C12.3996 2.84363 12.3238 2.82388 12.2474 2.80672C12.1675 2.78884 12.087 2.77328 12.0061 2.76008C11.7168 2.71243 11.4007 2.68994 11.0612 2.68994H8.19759C8.12925 2.68978 8.06176 2.7054 8.00021 2.7356C7.93326 2.7681 7.87512 2.81672 7.83081 2.87723C7.7865 2.93774 7.75736 3.00833 7.74591 3.08288L7.13724 7.00863L7.11966 7.12307C7.1597 6.86475 7.37689 6.67422 7.63411 6.67422H8.70614C10.8115 6.67422 12.46 5.80434 12.9416 3.28796C12.9559 3.21353 12.968 3.14141 12.979 3.07033C12.8571 3.00484 12.7251 2.94826 12.5829 2.9003C12.5471 2.8882 12.511 2.87675 12.4747 2.86593" fill="#1F264F"/>
</g>
<defs>
<filter id="filter0_d_54_395" x="0" y="0" width="18" height="20" filterUnits="userSpaceOnUse" color-interpolation-filters="sRGB">
<feFlood flood-opacity="0" result="BackgroundImageFix"/>
<feColorMatrix in="SourceAlpha" type="matrix" values="0 0 0 0 0 0 0 0 0 0 0 0 0 0 0 0 0 0 127 0" result="hardAlpha"/>
<feOffset dy="4"/>
<feGaussianBlur stdDeviation="2"/>
<feComposite in2="hardAlpha" operator="out"/>
<feColorMatrix type="matrix" values="0 0 0 0 0 0 0 0 0 0 0 0 0 0 0 0 0 0 0.25 0"/>
<feBlend mode="normal" in2="BackgroundImageFix" result="effect1_dropShadow_54_395"/>
<feBlend mode="normal" in="SourceGraphic" in2="effect1_dropShadow_54_395" result="shape"/>
</filter>
<clipPath id="clip0_54_395">
<rect width="10" height="12" fill="white" transform="translate(4)"/>
</clipPath>
</defs>
</svg>
